PathFileType	4	(X/Y/Z)	D:\Research_projects\MuscleProsody\BulkSports2Dtrack\RetrackedSports2D\p1_sample60_cam2\p1_sample60_cam2_Sports2D\p1_sample60_cam2_Sports2D_px_person00.trc
DataRate	CameraRate	NumFrames	NumMarkers	Units	OrigDataRate	OrigDataStartFrame	OrigNumFrames
60	60	5	22	m	60	292	780
Frame#	Time	Hip			RHip			RKnee			RAnkle			RBigToe			RSmallToe			RHeel			LHip			LKnee			LAnkle			LBigToe			LSmallToe			LHeel			Neck			Head			Nose			RShoulder			RElbow			RWrist			LShoulder			LElbow			LWrist		
		X1	Y1	Z1	X2	Y2	Z2	X3	Y3	Z3	X4	Y4	Z4	X5	Y5	Z5	X6	Y6	Z6	X7	Y7	Z7	X8	Y8	Z8	X9	Y9	Z9	X10	Y10	Z10	X11	Y11	Z11	X12	Y12	Z12	X13	Y13	Z13	X14	Y14	Z14	X15	Y15	Z15	X16	Y16	Z16	X17	Y17	Z17	X18	Y18	Z18	X19	Y19	Z19	X20	Y20	Z20	X21	Y21	Z21	X22	Y22	Z22
292	4.866666666666666	247.09706458534316	512.104680196511	0.0	218.85099772574594	516.9350222751601	0.0	217.47332245405318	633.4446278985491	0.0	219.84878327809602	730.6786687999788	0.0	222.34946728790567	766.9349942960813	0.0	203.52064540234844	762.0791432716061	0.0	223.26955759647424	740.1438179547278	0.0	275.3145480452138	518.0014643010014	0.0	269.31554594430935	633.581612489575	0.0	267.5254540593572	732.1440038743036	0.0	265.8594275877837	767.5459099550163	0.0	282.48661545746626	763.2241330883182	0.0	264.5323535104293	740.8516353819793	0.0	252.4851306085448	332.4430236608082	0.0	250.37813002603215	247.94581520386564	0.0	239.90174216338124	296.26171178393133	0.0	201.80098827413886	354.693398918498	0.0	144.73057800713937	389.385760787947	0.0	68.86456906125767	395.79669510299027	0.0	306.7392853890617	357.47872331942347	0.0	369.7558554219655	395.89381598159025	0.0	442.55666350963463	419.57469878155763	0.0
293	4.883333333333333	247.14543356318094	511.84799899125653	0.0	218.9862698865079	517.0997199597612	0.0	217.53170767630982	633.5298014779007	0.0	219.87928660205588	730.7478183258066	0.0	222.426912145919	766.8433997493457	0.0	203.48063501386216	762.1340026972924	0.0	223.1583643717235	739.9749279021459	0.0	275.3660470910256	518.1396153049334	0.0	269.40479269642776	633.5770971088821	0.0	267.5716648513452	732.2710588228546	0.0	265.8479985149129	767.5420196388088	0.0	282.52349908490686	763.1922935938749	0.0	264.5196666985485	740.900468849363	0.0	252.61230663614066	332.3376383702764	0.0	250.779267935114	248.30379668048298	0.0	240.16633788100694	296.09052157584074	0.0	201.18404818723786	354.0855833435734	0.0	139.93199194429266	384.05506982523826	0.0	62.83728689308073	382.5112579768038	0.0	307.2582451253179	357.1146513593138	0.0	373.8500684569012	391.3412176528466	0.0	448.02837830955997	407.13319501723356	0.0
294	4.9	247.17419210040075	511.59995157704964	0.0	219.09322823930484	517.2790917786318	0.0	217.59083330863558	633.6577248276079	0.0	219.8938620764806	730.806045557609	0.0	222.50044661879835	766.7681073610592	0.0	203.45564372429808	762.1924820302817	0.0	223.05503428221493	739.7930120773106	0.0	275.4018674480046	518.29844859991	0.0	269.4814875070671	633.6561538702772	0.0	267.6387909940372	732.3912176344987	0.0	265.82520601139134	767.570334437631	0.0	282.57065636457486	763.1750004850263	0.0	264.5161729784849	740.9194693701934	0.0	252.79098294499937	332.2290672018936	0.0	251.23426061767992	248.695008306206	0.0	240.48907462421604	295.87681103470595	0.0	200.56087995537686	353.4881759731228	0.0	135.4735237704809	378.93269663461575	0.0	58.060633966835816	369.63195394156986	0.0	307.8278233697965	356.82312242419596	0.0	377.5556531417332	387.0866951565349	0.0	452.1499132489609	394.7056246122234	0.0
295	4.916666666666667	247.1760700056508	511.3772538109101	0.0	219.15574224733578	517.4590662123487	0.0	217.64585495870975	633.8321271730756	0.0	219.8996227188606	730.8689720603124	0.0	222.55547028416788	766.7124613348317	0.0	203.4446277390224	762.2518787284372	0.0	222.96770199320105	739.624901119533	0.0	275.4163712065329	518.4658145853974	0.0	269.54289701765066	633.817997867279	0.0	267.7224754896432	732.499088000819	0.0	265.791619539791	767.6295103314443	0.0	282.62297916357323	763.1754112305412	0.0	264.5249262085286	740.9171443632704	0.0	253.01875849452378	332.13068262844996	0.0	251.7335179473644	249.1059135367567	0.0	240.87823242153277	295.6335140123093	0.0	199.98438541031783	352.89854479444904	0.0	131.54649014166873	374.0931478603891	0.0	54.80839832270201	357.3858833707883	0.0	308.4122413515177	356.59390300656213	0.0	380.7238399371048	383.16410446075423	0.0	454.7487779447585	382.4320868883888	0.0
296	4.933333333333334	247.14806033908653	511.19417887030767	0.0	219.1620352261586	517.6167724887064	0.0	217.68903927686867	634.0476980090685	0.0	219.90185681166975	730.9461597866684	0.0	222.57864881985324	766.6770873530504	0.0	203.44743073607344	762.3054899827412	0.0	222.90693457295026	739.4877937260118	0.0	275.405789797166	518.6215152233325	0.0	269.5851896261852	634.0515713082235	0.0	267.8184264115851	732.591436480852	0.0	265.7511605550121	767.7173376011565	0.0	282.67772065015765	763.1937599679856	0.0	264.54624387694446	740.9001836948372	0.0	253.2890720501879	332.04842834091284	0.0	252.26793034237588	249.52010215201628	0.0	241.33960206786077	295.3776938584627	0.0	199.51491922096866	352.31682430447455	0.0	128.3267657527317	369.6325590294051	0.0	53.315566064391184	346.0333353064328	0.0	308.9642141028607	356.4158866318829	0.0	383.197309210302	379.62855097107337	0.0	455.6523802558797	370.5197356742599	0.0
